:FULLY-SPECIFIED
:FORCE-ALL-JOINTS-BE-3DOF
:DEGREES
510
root 5.89376 16.2787 -5.20936 -164.672 75.6487 -169.808
lfemur -24.5902 -13.5548 -23.1786
ltibia 53.6807 0 0
lfoot -26.5614 0.0109941 0
ltoes 3.92421 0 0
rfemur -56.4805 5.42386 4.3689
rtibia 55.947 0 0
rfoot 12.5171 7.55332 0
rtoes -18.7563 0 0
lowerback 8.99575 0.521501 -0.586061
upperback 1.55815 0.850663 3.35803
thorax -3.48623 0.48594 3.72038
lowerneck -8.30794 -12.6953 -4.28941
upperneck 11.8872 -16.8836 2.85598
head 5.56069 -8.22216 0.252077
lclavicle 6.83468e-015 4.19552e-014 0
lhumerus -46.5267 -34.7119 118.172
lradius 56.8973 0 0
lwrist 6.3838 0 0
lhand 5.02367 -1.45869 0
lfingers 7.12502 0 0
lthumb 30.3872 25.9957 0
rclavicle 6.83468e-015 4.19552e-014 0
rhumerus -10.4608 41.067 -69.3992
rradius 119.867 0 0
rwrist -26.7358 0 0
rhand 26.7595 -13.8165 0
rfingers 7.12502 0 0
rthumb 50.7225 -754.216 0
511
root 5.96672 16.2874 -5.15555 -168.043 76.4073 -172.918
lfemur -23.9879 -14.2798 -23.2887
ltibia 53.5773 0 0
lfoot -26.6901 0.0509378 0
ltoes 3.79852 0 0
rfemur -57.6022 5.62733 4.18057
rtibia 56.391 0 0
rfoot 12.48 8.1006 0
rtoes -18.128 0 0
lowerback 9.15421 0.522619 -0.718044
upperback 1.59823 0.852567 3.37607
thorax -3.53559 0.488577 3.81193
lowerneck -8.32063 -12.8774 -4.43771
upperneck 12.0836 -17.1192 2.90326
head 5.63418 -8.33662 0.268582
lclavicle 6.95746e-015 4.21423e-014 0
lhumerus -46.544 -34.937 118.443
lradius 57.0057 0 0
lwrist 6.49292 0 0
lhand 5.64779 -1.22708 0
lfingers 7.12502 0 0
lthumb 30.9876 26.1768 0
rclavicle 6.95746e-015 4.21423e-014 0
rhumerus -9.60124 41.9555 -69.1551
rradius 121.009 0 0
rwrist -27.4629 0 0
rhand 27.9175 -13.5236 0
rfingers 7.12502 0 0
rthumb 51.8253 -753.732 0
512
root 6.00611 16.2685 -5.12209 -168.214 76.0171 -173.084
lfemur -24.0194 -13.9525 -23.1444
ltibia 53.8615 0 0
lfoot -26.9166 -0.103968 0
ltoes 3.58588 0 0
rfemur -57.3583 5.49195 4.11201
rtibia 56.1285 0 0
rfoot 12.3218 8.04737 0
rtoes -18.4905 0 0
lowerback 9.16466 0.496612 -0.719548
upperback 1.65109 0.821677 3.40296
thorax -3.48368 0.473616 3.84437
lowerneck -8.20844 -12.9125 -4.44211
upperneck 12.017 -17.1729 2.97342
head 5.60492 -8.36259 0.29546
lclavicle 6.8912e-015 4.24697e-014 0
lhumerus -46.5286 -34.4186 118.095
lradius 56.9295 0 0
lwrist 6.89149 0 0
lhand 5.03629 -1.31338 0
lfingers 7.12502 0 0
lthumb 30.3994 26.141 0
rclavicle 6.8912e-015 4.24697e-014 0
rhumerus -9.01224 41.4727 -69.3447
rradius 121.273 0 0
rwrist -27.792 0 0
rhand 26.8294 -13.6846 0
rfingers 7.12502 0 0
rthumb 50.79 -754.085 0
513
root 6.0455 16.2496 -5.08864 -168.386 75.6268 -173.25
lfemur -24.0509 -13.6252 -23.0001
ltibia 54.1456 0 0
lfoot -27.1431 -0.258873 0
ltoes 3.37324 0 0
rfemur -57.1144 5.35657 4.04345
rtibia 55.866 0 0
rfoot 12.1636 7.99414 0
rtoes -18.8531 0 0
lowerback 9.17511 0.470605 -0.721052
upperback 1.70395 0.790786 3.42984
thorax -3.43178 0.458655 3.87682
lowerneck -8.09625 -12.9476 -4.44651
upperneck 11.9503 -17.2265 3.04359
head 5.57565 -8.38857 0.322338
lclavicle 6.82494e-015 4.27971e-014 0
lhumerus -46.5133 -33.9002 117.746
lradius 56.8534 0 0
lwrist 7.29006 0 0
lhand 4.42479 -1.39967 0
lfingers 7.12502 0 0
lthumb 29.8113 26.1051 0
rclavicle 6.82494e-015 4.27971e-014 0
rhumerus -8.42323 40.9898 -69.5343
rradius 121.536 0 0
rwrist -28.1211 0 0
rhand 25.7413 -13.8456 0
rfingers 7.12502 0 0
rthumb 49.7546 -754.437 0
514
root 6.08489 16.2307 -5.05518 -168.557 75.2366 -173.417
lfemur -24.0824 -13.2979 -22.8558
ltibia 54.4298 0 0
lfoot -27.3696 -0.413779 0
ltoes 3.16059 0 0
rfemur -56.8704 5.2212 3.97488
rtibia 55.6035 0 0
rfoot 12.0054 7.94091 0
rtoes -19.2156 0 0
lowerback 9.18555 0.444598 -0.722556
upperback 1.7568 0.759896 3.45673
thorax -3.37987 0.443695 3.90926
lowerneck -7.98406 -12.9827 -4.45092
upperneck 11.8837 -17.2802 3.11375
head 5.54639 -8.41454 0.349216
lclavicle 6.75868e-015 4.31245e-014 0
lhumerus -46.4979 -33.3818 117.398
lradius 56.7772 0 0
lwrist 7.68864 0 0
lhand 3.81329 -1.48597 0
lfingers 7.12502 0 0
lthumb 29.2231 26.0693 0
rclavicle 6.75868e-015 4.31245e-014 0
rhumerus -7.83423 40.507 -69.7239
rradius 121.8 0 0
rwrist -28.4502 0 0
rhand 24.6531 -14.0066 0
rfingers 7.12502 0 0
rthumb 48.7193 -754.79 0
515
root 6.12427 16.2118 -5.02172 -168.728 74.8463 -173.583
lfemur -24.1139 -12.9706 -22.7115
ltibia 54.714 0 0
lfoot -27.5961 -0.568685 0
ltoes 2.94795 0 0
rfemur -56.6265 5.08582 3.90632
rtibia 55.3411 0 0
rfoot 11.8472 7.88767 0
rtoes -19.5782 0 0
lowerback 9.196 0.418591 -0.72406
upperback 1.80966 0.729006 3.48361
thorax -3.32797 0.428734 3.9417
lowerneck -7.87188 -13.0178 -4.45532
upperneck 11.817 -17.3338 3.18391
head 5.51712 -8.44051 0.376094
lclavicle 6.69241e-015 4.34519e-014 0
lhumerus -46.4825 -32.8634 117.049
lradius 56.7011 0 0
lwrist 8.08721 0 0
lhand 3.20179 -1.57226 0
lfingers 7.12502 0 0
lthumb 28.6349 26.0335 0
rclavicle 6.69241e-015 4.34519e-014 0
rhumerus -7.24522 40.0242 -69.9135
rradius 122.064 0 0
rwrist -28.7793 0 0
rhand 23.565 -14.1676 0
rfingers 7.12502 0 0
rthumb 47.684 -755.142 0
516
root 6.16366 16.1929 -4.98827 -168.899 74.4561 -173.749
lfemur -24.1454 -12.6433 -22.5672
ltibia 54.9981 0 0
lfoot -27.8226 -0.72359 0
ltoes 2.73531 0 0
rfemur -56.3826 4.95044 3.83776
rtibia 55.0786 0 0
rfoot 11.689 7.83444 0
rtoes -19.9407 0 0
lowerback 9.20645 0.392584 -0.725564
upperback 1.86252 0.698115 3.5105
thorax -3.27606 0.413773 3.97414
lowerneck -7.75969 -13.0529 -4.45972
upperneck 11.7504 -17.3875 3.25408
head 5.48786 -8.46649 0.402972
lclavicle 6.62615e-015 4.37794e-014 0
lhumerus -46.4672 -32.345 116.701
lradius 56.6249 0 0
lwrist 8.48578 0 0
lhand 2.59029 -1.65856 0
lfingers 7.12502 0 0
lthumb 28.0468 25.9976 0
rclavicle 6.62615e-015 4.37794e-014 0
rhumerus -6.65622 39.5414 -70.103
rradius 122.327 0 0
rwrist -29.1084 0 0
rhand 22.4769 -14.3286 0
rfingers 7.12502 0 0
rthumb 46.6486 -755.495 0
517
root 6.20305 16.1741 -4.95481 -169.071 74.0658 -173.915
lfemur -24.1769 -12.316 -22.4229
ltibia 55.2823 0 0
lfoot -28.049 -0.878496 0
ltoes 2.52267 0 0
rfemur -56.1387 4.81506 3.7692
rtibia 54.8161 0 0
rfoot 11.5308 7.78121 0
rtoes -20.3032 0 0
lowerback 9.2169 0.366577 -0.727067
upperback 1.91538 0.667225 3.53739
thorax -3.22415 0.398812 4.00659
lowerneck -7.6475 -13.0879 -4.46412
upperneck 11.6838 -17.4411 3.32424
head 5.45859 -8.49246 0.42985
lclavicle 6.55989e-015 4.41068e-014 0
lhumerus -46.4518 -31.8266 116.353
lradius 56.5488 0 0
lwrist 8.88435 0 0
lhand 1.97879 -1.74485 0
lfingers 7.12502 0 0
lthumb 27.4586 25.9618 0
rclavicle 6.55989e-015 4.41068e-014 0
rhumerus -6.06721 39.0585 -70.2926
rradius 122.591 0 0
rwrist -29.4376 0 0
rhand 21.3888 -14.4895 0
rfingers 7.12502 0 0
rthumb 45.6133 -755.847 0
518
root 6.24244 16.1552 -4.92135 -169.242 73.6756 -174.081
lfemur -24.2084 -11.9887 -22.2786
ltibia 55.5665 0 0
lfoot -28.2755 -1.0334 0
ltoes 2.31002 0 0
rfemur -55.8947 4.67969 3.70063
rtibia 54.5536 0 0
rfoot 11.3727 7.72798 0
rtoes -20.6658 0 0
lowerback 9.22735 0.34057 -0.728571
upperback 1.96823 0.636334 3.56427
thorax -3.17225 0.383852 4.03903
lowerneck -7.53531 -13.123 -4.46853
upperneck 11.6171 -17.4948 3.3944
head 5.42933 -8.51843 0.456728
lclavicle 6.49363e-015 4.44342e-014 0
lhumerus -46.4364 -31.3082 116.004
lradius 56.4726 0 0
lwrist 9.28293 0 0
lhand 1.36729 -1.83115 0
lfingers 7.12502 0 0
lthumb 26.8705 25.926 0
rclavicle 6.49363e-015 4.44342e-014 0
rhumerus -5.47821 38.5757 -70.4822
rradius 122.855 0 0
rwrist -29.7667 0 0
rhand 20.3007 -14.6505 0
rfingers 7.12502 0 0
rthumb 44.5779 -756.2 0
519
root 6.28183 16.1363 -4.8879 -169.413 73.2853 -174.247
lfemur -24.2399 -11.6614 -22.1343
ltibia 55.8506 0 0
lfoot -28.502 -1.18831 0
ltoes 2.09738 0 0
rfemur -55.6508 4.54431 3.63207
rtibia 54.2911 0 0
rfoot 11.2145 7.67475 0
rtoes -21.0283 0 0
lowerback 9.2378 0.314563 -0.730075
upperback 2.02109 0.605444 3.59116
thorax -3.12034 0.368891 4.07147
lowerneck -7.42312 -13.1581 -4.47293
upperneck 11.5505 -17.5485 3.46457
head 5.40006 -8.54441 0.483606
lclavicle 6.42737e-015 4.47616e-014 0
lhumerus -46.4211 -30.7898 115.656
lradius 56.3965 0 0
lwrist 9.6815 0 0
lhand 0.755792 -1.91744 0
lfingers 7.12502 0 0
lthumb 26.2823 25.8901 0
rclavicle 6.42737e-015 4.47616e-014 0
rhumerus -4.8892 38.0929 -70.6718
rradius 123.118 0 0
rwrist -30.0958 0 0
rhand 19.2126 -14.8115 0
rfingers 7.12502 0 0
rthumb 43.5426 -756.552 0
520
root 6.32122 16.1174 -4.85444 -169.585 72.8951 -174.414
lfemur -24.2713 -11.3341 -21.99
ltibia 56.1348 0 0
lfoot -28.7285 -1.34321 0
ltoes 1.88474 0 0
rfemur -55.4069 4.40893 3.56351
rtibia 54.0286 0 0
rfoot 11.0563 7.62152 0
rtoes -21.3909 0 0
lowerback 9.24824 0.288557 -0.731579
upperback 2.07395 0.574554 3.61804
thorax -3.06844 0.35393 4.10391
lowerneck -7.31093 -13.1932 -4.47733
upperneck 11.4838 -17.6021 3.53473
head 5.3708 -8.57038 0.510484
lclavicle 6.36111e-015 4.5089e-014 0
lhumerus -46.4057 -30.2714 115.307
lradius 56.3203 0 0
lwrist 10.0801 0 0
lhand 0.144292 -2.00374 0
lfingers 7.12502 0 0
lthumb 25.6941 25.8543 0
rclavicle 6.36111e-015 4.5089e-014 0
rhumerus -4.3002 37.6101 -70.8614
rradius 123.382 0 0
rwrist -30.4249 0 0
rhand 18.1244 -14.9725 0
rfingers 7.12502 0 0
rthumb 42.5073 -756.905 0
521
root 6.36061 16.0985 -4.82099 -169.756 72.5048 -174.58
lfemur -24.3028 -11.0068 -21.8457
ltibia 56.419 0 0
lfoot -28.955 -1.49812 0
ltoes 1.6721 0 0
rfemur -55.163 4.27355 3.49495
rtibia 53.7662 0 0
rfoot 10.8981 7.56828 0
rtoes -21.7534 0 0
lowerback 9.25869 0.26255 -0.733083
upperback 2.12681 0.543663 3.64493
thorax -3.01653 0.338969 4.13636
lowerneck -7.19875 -13.2283 -4.48173
upperneck 11.4172 -17.6558 3.60489
head 5.34153 -8.59636 0.537362
lclavicle 6.29484e-015 4.54164e-014 0
lhumerus -46.3904 -29.753 114.959
lradius 56.2442 0 0
lwrist 10.4786 0 0
lhand -0.467208 -2.09003 0
lfingers 7.12502 0 0
lthumb 25.106 25.8185 0
rclavicle 6.29484e-015 4.54164e-014 0
rhumerus -3.71119 37.1272 -71.051
rradius 123.646 0 0
rwrist -30.754 0 0
rhand 17.0363 -15.1335 0
rfingers 7.12502 0 0
rthumb 41.4719 -757.257 0
522
root 6.39999 16.0796 -4.78753 -169.927 72.1146 -174.746
lfemur -24.3343 -10.6796 -21.7014
ltibia 56.7031 0 0
lfoot -29.1815 -1.65302 0
ltoes 1.45945 0 0
rfemur -54.9191 4.13818 3.42639
rtibia 53.5037 0 0
rfoot 10.7399 7.51505 0
rtoes -22.116 0 0
lowerback 9.26914 0.236543 -0.734587
upperback 2.17966 0.512773 3.67182
thorax -2.96462 0.324008 4.1688
lowerneck -7.08656 -13.2634 -4.48614
upperneck 11.3506 -17.7094 3.67506
head 5.31227 -8.62233 0.56424
lclavicle 6.22858e-015 4.57438e-014 0
lhumerus -46.375 -29.2346 114.61
lradius 56.168 0 0
lwrist 10.8772 0 0
lhand -1.07871 -2.17633 0
lfingers 7.12502 0 0
lthumb 24.5178 25.7826 0
rclavicle 6.22858e-015 4.57438e-014 0
rhumerus -3.12219 36.6444 -71.2406
rradius 123.909 0 0
rwrist -31.0831 0 0
rhand 15.9482 -15.2945 0
rfingers 7.12502 0 0
rthumb 40.4366 -757.61 0
